<?xml version="1.0" encoding="utf-8"?>
<!-- Generator: Adobe Illustrator 18.0.0, SVG Export Plug-In . SVG Version: 6.00 Build 0)  -->
<!DOCTYPE svg PUBLIC "-//W3C//DTD SVG 1.1//EN" "http://www.w3.org/Graphics/SVG/1.1/DTD/svg11.dtd">
<svg version="1.1" id="Layer_1" xmlns="http://www.w3.org/2000/svg" xmlns:xlink="http://www.w3.org/1999/xlink" x="0px" y="0px"
	 viewBox="0 0 64 64" enable-background="new 0 0 64 64" xml:space="preserve">
<g>
	<g>
		<g>
			<g>
				<path fill="#E5E5E5" d="M32,0c17.7,0,32,14.3,32,32S49.7,64,32,64S0,49.7,0,32S14.3,0,32,0z"/>
			</g>
		</g>
	</g>
	<g>
		<g>
			<g>
				<path fill="#434C59" d="M48,52.8H16.6c-2.2,0-4-1.8-4-4v-34c0-2.2,1.8-4,4-4H48c2.2,0,4,1.8,4,4v34C52,51,50.2,52.8,48,52.8z"/>
			</g>
		</g>
	</g>
	<g>
		<g>
			<g>
				<rect x="17.5" y="15.4" fill="#9AD161" width="30" height="11.1"/>
			</g>
		</g>
	</g>
	<g>
		<g>
			<g>
				<path fill="#8490A0" d="M24.1,38.4h-5.8c-0.5,0-1-0.5-1-1v-5.6c0-0.5,0.5-1,1-1h5.8c0.5,0,1,0.5,1,1v5.6
					C25.1,37.9,24.6,38.4,24.1,38.4z"/>
			</g>
		</g>
	</g>
	<g>
		<g>
			<g>
				<path fill="#8490A0" d="M35,38.4h-5.6c-0.5,0-1-0.5-1-1v-5.6c0-0.5,0.5-1,1-1H35c0.5,0,1,0.5,1,1v5.6C36,37.9,35.5,38.4,35,38.4
					z"/>
			</g>
		</g>
	</g>
	<g>
		<g>
			<g>
				<path fill="#EA5959" d="M46,38.4h-5.5c-0.5,0-1-0.5-1-1v-5.6c0-0.5,0.5-1,1-1H46c0.5,0,1,0.5,1,1v5.6C47,37.9,46.5,38.4,46,38.4
					z"/>
			</g>
		</g>
	</g>
	<g>
		<g>
			<g>
				<path fill="#8490A0" d="M24.1,48.6h-5.8c-0.5,0-1-0.5-1-1V42c0-0.5,0.5-1,1-1h5.8c0.5,0,1,0.5,1,1v5.6
					C25.1,48.1,24.6,48.6,24.1,48.6z"/>
			</g>
		</g>
	</g>
	<g>
		<g>
			<g>
				<path fill="#8490A0" d="M35,48.6h-5.6c-0.5,0-1-0.5-1-1V42c0-0.5,0.5-1,1-1H35c0.5,0,1,0.5,1,1v5.6C36,48.1,35.5,48.6,35,48.6z"
					/>
			</g>
		</g>
	</g>
	<g>
		<g>
			<g>
				<path fill="#3E8AF7" d="M46,48.6h-5.5c-0.5,0-1-0.5-1-1V42c0-0.5,0.5-1,1-1H46c0.5,0,1,0.5,1,1v5.6C47,48.1,46.5,48.6,46,48.6z"
					/>
			</g>
		</g>
	</g>
	<g>
		<g>
			<g>
				<g>
					<path fill="#FFFFFF" d="M43.3,36.6c-0.3,0-0.6-0.1-0.8-0.2c-0.2-0.1-0.4-0.3-0.5-0.5c-0.1-0.2-0.2-0.4-0.3-0.7
						c-0.1-0.2-0.1-0.5-0.1-0.8c0-0.3,0-0.5,0.1-0.8c0.1-0.2,0.1-0.5,0.3-0.7c0.1-0.2,0.3-0.3,0.5-0.5c0.2-0.1,0.5-0.2,0.8-0.2
						c0.3,0,0.6,0.1,0.9,0.2c0.1,0.1,0.2,0.2,0.3,0.3c0.1,0.1,0.2,0.3,0.2,0.6l-0.8,0.2c-0.1-0.2-0.1-0.3-0.2-0.4
						c-0.1-0.1-0.2-0.2-0.4-0.2c-0.1,0-0.2,0-0.3,0.1c-0.1,0-0.1,0.1-0.2,0.2c-0.1,0.1-0.1,0.2-0.1,0.2c0,0.1-0.1,0.2-0.1,0.3
						c0,0.1,0,0.2,0,0.3c0,0.1,0,0.2,0,0.3c0,0.4,0.1,0.7,0.2,1c0.1,0.2,0.3,0.3,0.6,0.3c0.1,0,0.2,0,0.3,0c0.1,0,0.1-0.1,0.2-0.1
						c0.1-0.1,0.1-0.1,0.1-0.2c0-0.1,0.1-0.1,0.1-0.2l0.8,0.2c-0.1,0.2-0.2,0.4-0.3,0.5c-0.1,0.1-0.2,0.2-0.3,0.3
						C44,36.5,43.7,36.6,43.3,36.6z"/>
				</g>
			</g>
		</g>
	</g>
	<g>
		<g>
			<g>
				<polygon fill="#FFFFFF" points="23.1,35.1 21.7,35.1 21.7,36.5 20.6,36.5 20.6,35.1 19.2,35.1 19.2,34 20.6,34 20.6,32.7 
					21.7,32.7 21.7,34 23.1,34 				"/>
			</g>
		</g>
	</g>
	<g>
		<g>
			<g>
				<rect x="19.2" y="44.3" fill="#FFFFFF" width="3.9" height="1.1"/>
			</g>
		</g>
	</g>
	<g>
		<g>
			<g>
				<polygon fill="#FFFFFF" points="34,35.6 33.2,36.4 32.2,35.4 31.2,36.4 30.4,35.6 31.4,34.6 30.4,33.6 31.2,32.8 32.2,33.8 
					33.2,32.8 34,33.6 33,34.6 				"/>
			</g>
		</g>
	</g>
	<g>
		<g>
			<g>
				<circle fill="#FFFFFF" cx="32.2" cy="43.2" r="0.5"/>
			</g>
		</g>
	</g>
	<g>
		<g>
			<g>
				<circle fill="#FFFFFF" cx="32.2" cy="46.4" r="0.5"/>
			</g>
		</g>
	</g>
	<g>
		<g>
			<g>
				<rect x="30.3" y="44.3" fill="#FFFFFF" width="3.7" height="1.1"/>
			</g>
		</g>
	</g>
	<g>
		<g>
			<g>
				<rect x="41.3" y="43.3" fill="#FFFFFF" width="3.9" height="1"/>
			</g>
		</g>
	</g>
	<g>
		<g>
			<g>
				<rect x="41.3" y="45.3" fill="#FFFFFF" width="3.9" height="1"/>
			</g>
		</g>
	</g>
	<g>
		<g>
			<g>
				<g>
					<path fill="#699635" d="M41.9,25.1c-0.5,0-1-0.1-1.3-0.3c-0.4-0.2-0.6-0.5-0.8-0.9c-0.2-0.4-0.3-0.8-0.4-1.2
						c-0.1-0.4-0.1-0.9-0.1-1.3c0-0.4,0-0.9,0.1-1.3c0.1-0.5,0.2-0.9,0.4-1.2c0.2-0.4,0.5-0.7,0.8-0.9c0.4-0.2,0.8-0.3,1.3-0.3
						s1,0.1,1.3,0.3c0.4,0.2,0.6,0.5,0.8,0.9c0.2,0.4,0.3,0.8,0.4,1.2c0.1,0.5,0.1,0.9,0.1,1.3c0,1.2-0.2,2.1-0.7,2.8
						C43.5,24.7,42.8,25.1,41.9,25.1z M41.9,18.8c-0.4,0-0.7,0.2-0.9,0.6c-0.2,0.4-0.3,1-0.3,1.9c0,0.8,0.1,1.4,0.3,1.9
						c0.2,0.4,0.5,0.6,0.9,0.6c0.4,0,0.7-0.2,0.9-0.6c0.2-0.4,0.3-1,0.3-1.9c0-0.8-0.1-1.4-0.3-1.9C42.6,19,42.3,18.8,41.9,18.8z"/>
				</g>
			</g>
		</g>
	</g>
	<g>
		<g>
			<g>
				<rect x="17.5" y="15.4" fill="#699635" width="30" height="0.9"/>
			</g>
		</g>
	</g>
</g>
</svg>
