<?xml version="1.0" encoding="utf-8"?>
<!-- Generator: Adobe Illustrator 20.0.0, SVG Export Plug-In . SVG Version: 6.00 Build 0)  -->
<svg version="1.1" id="Layer_1" xmlns="http://www.w3.org/2000/svg" xmlns:xlink="http://www.w3.org/1999/xlink" x="0px" y="0px"
	 viewBox="0 0 464 464" style="enable-background:new 0 0 464 464;" xml:space="preserve">
<style type="text/css">
	.st0{fill:#956E55;}
	.st1{fill:#A2795C;}
	.st2{fill:#623F33;}
	.st3{fill:#7C5A49;}
	.st4{fill:#C91836;}
	.st5{fill:#AA0E21;}
</style>
<path class="st0" d="M388.6,437l-10.1-81c-0.1-0.7-0.2-1.5-0.4-2.2c-2.2-11.2-10.3-20.5-21.3-24.2L310,314l2-2l-18.8-18.8
	c-2.9-2.9-7.6-3.1-10.8-0.5l-2.4,2v-20l34.5-14.4c17.9-7.5,29.5-24.9,29.5-44.3v-4c13.3,0,24-10.7,24-24s-10.7-24-24-24v-36
	c0-22.1-17.9-40-40-40H160c-22.1,0-40,17.9-40,40v36c-13.3,0-24,10.7-24,24s10.7,24,24,24v4c0,19.4,11.7,36.9,29.5,44.3l34.5,14.4
	v20l-2.4-2c-3.2-2.6-7.9-2.4-10.8,0.5L152,312l2,2l-46.9,15.6c-11,3.7-19.1,12.9-21.3,24.2c-0.1,0.7-0.3,1.5-0.4,2.2l-10.1,81
	c-1.8,14.3,9.4,27,23.8,27H144h176h44.8C379.2,464,390.4,451.3,388.6,437z"/>
<path class="st1" d="M344,164v-36c0-22.1-17.9-40-40-40H160c-22.1,0-40,17.9-40,40v36c-13.3,0-24,10.7-24,24s10.7,24,24,24v4
	c0,19.4,11.7,36.9,29.5,44.3l51.7,21.5c9.8,4.1,20.2,6.2,30.8,6.2l0,0c10.6,0,21-2.1,30.8-6.2l51.7-21.5
	c17.9-7.5,29.5-24.9,29.5-44.3v-4c13.3,0,24-10.7,24-24S357.3,164,344,164z"/>
<path class="st2" d="M176,192L176,192c-4.4,0-8-3.6-8-8v-8c0-4.4,3.6-8,8-8l0,0c4.4,0,8,3.6,8,8v8C184,188.4,180.4,192,176,192z"/>
<path class="st2" d="M288,192L288,192c-4.4,0-8-3.6-8-8v-8c0-4.4,3.6-8,8-8l0,0c4.4,0,8,3.6,8,8v8C296,188.4,292.4,192,288,192z"/>
<path class="st3" d="M232,252.2c-10.1,0-19.5-2.7-25.8-7.4c-2.6-1.9-3.3-5.8-1.5-8.6c1.8-2.8,5.3-3.6,7.9-1.6
	c4.4,3.3,11.7,5.3,19.4,5.3s15-2,19.4-5.3c2.6-1.9,6.1-1.2,7.9,1.6c1.8,2.8,1.1,6.7-1.5,8.6C251.5,249.5,242.1,252.2,232,252.2z"/>
<path class="st2" d="M114,38.4l6,97.6c13.3,0,24-10.3,24-22.9h88h88c0,12.7,10.7,22.9,24,22.9l6-97.6C351.1,20.8,336.5,6,318.1,6
	H145.9C127.5,6,112.9,20.8,114,38.4z"/>
<path class="st4" d="M320,464h44.8c14.4,0,25.6-12.7,23.8-27l-1.6-13l-8.5-68c-1.5-12.2-9.9-22.5-21.6-26.4l-51.8-17.3
	c-5.7,12.9-39.4,39.6-73.1,39.6c-33.7,0-67.4-26.8-73.1-39.6l-51.8,17.3C95.4,333.5,87,343.8,85.5,356l-7.6,60.9L75.4,437
	c-1.8,14.3,9.4,27,23.8,27H144L320,464L320,464z"/>
<polygon class="st4" points="224,328 232,352 205.5,352.6 "/>
<polygon class="st4" points="240,328 232,352 258.5,352.6 "/>
<path class="st5" d="M224,328l-18.5,24.6c-2.9,3.9-8.6,4.3-12.1,0.9L152,312l18.8-18.8c2.9-2.9,7.6-3.1,10.8-0.5L224,328z"/>
<path class="st5" d="M240,328l18.5,24.6c2.9,3.9,8.6,4.3,12.1,0.9L312,312l-18.8-18.8c-2.9-2.9-7.6-3.1-10.8-0.5L240,328z"/>
<polygon class="st5" points="240,328 232,352 224,328 224,464 240,464 "/>
<path class="st5" d="M92.2,340.2c-3.6,4.5-5.9,9.9-6.7,15.8l-10.1,81c-1.8,14.3,9.4,27,23.8,27H144v-52.1c0-7.7-2.8-15.1-7.8-21
	L92.2,340.2z"/>
<path class="st5" d="M371.8,340.2c3.6,4.5,5.9,9.9,6.7,15.8l10.1,81c1.8,14.3-9.4,27-23.8,27H320v-52.1c0-7.7,2.8-15.1,7.8-21
	L371.8,340.2z"/>
</svg>
