<?xml version="1.0" encoding="utf-8"?>
<!-- Generator: Adobe Illustrator 20.0.0, SVG Export Plug-In . SVG Version: 6.00 Build 0)  -->
<svg version="1.1" id="Layer_1" xmlns="http://www.w3.org/2000/svg" xmlns:xlink="http://www.w3.org/1999/xlink" x="0px" y="0px"
	 viewBox="0 0 464 464" style="enable-background:new 0 0 464 464;" xml:space="preserve">
<style type="text/css">
	.st0{fill:#FFD7A3;}
	.st1{fill:#1C1815;}
	.st2{fill:#FFE1B2;}
	.st3{fill:#E4B07B;}
	.st4{fill:#83C2E5;}
	.st5{fill:#ACDAF9;}
</style>
<path class="st0" d="M370.8,365c-1.8-13.1-9.9-24.6-21.8-30.5l-17.2-8.6c-2.6-1.3-5.5-0.1-6.8,2.3l-8.7-3.2
	c59.9-16.3,91.6-45,91.6-45c-31.5-61.5-23-155-48-208S288,0,232,0S129,19,104,72S87.5,218.5,56,280c0,0,31.8,28.7,91.6,45l-8.7,3.2
	c-1.2-2.4-4.2-3.6-6.7-2.3l-15.7,7.9c-13.4,6.7-21.6,18.1-23.3,31.3l-0.4,2.9c0,0,0,0,0,0l-9.2,68.9c-1.9,14.4,9.3,27.2,23.8,27.2
	h249.2c14.5,0,25.7-12.8,23.8-27.2L370.8,365z"/>
<g>
	<path class="st1" d="M360,72C335,19,288,0,232,0S129,19,104,72S87.5,218.5,56,280c0,0,62,56,176,56s176-56,176-56
		C376.5,218.5,385,125,360,72z"/>
</g>
<path class="st0" d="M371.2,367.9c-2-14.7-11.9-27.1-25.8-32.3l-54.4-20c-6.5-2.2-10.9-8.3-10.9-15.2V248h-96v52.5
	c0,6.9-4.4,13-10.9,15.2l-54.4,20c-13.9,5.1-23.9,17.5-25.8,32.3l-9.2,68.9c-1.9,14.4,9.3,27.2,23.8,27.2h249.2
	c14.5,0,25.7-12.8,23.8-27.2L371.2,367.9z"/>
<path class="st2" d="M344,160v-16c0-22.1-17.9-40-40-40H160c-22.1,0-40,17.9-40,40v16c-13.3,0-24,10.7-24,24c0,13.3,10.7,24,24,24v8
	c0,19.4,11.7,36.9,29.5,44.3l51.7,21.5c9.8,4.1,20.2,6.2,30.8,6.2l0,0c10.6,0,21-2.1,30.8-6.2l51.7-21.5
	c17.9-7.5,29.5-24.9,29.5-44.3v-8c13.3,0,24-10.7,24-24S357.3,160,344,160z"/>
<g>
	<path class="st1" d="M176,192L176,192c-4.4,0-8-3.6-8-8v-8c0-4.4,3.6-8,8-8l0,0c4.4,0,8,3.6,8,8v8C184,188.4,180.4,192,176,192z"/>
</g>
<g>
	<path class="st1" d="M288,192L288,192c-4.4,0-8-3.6-8-8v-8c0-4.4,3.6-8,8-8l0,0c4.4,0,8,3.6,8,8v8C296,188.4,292.4,192,288,192z"/>
</g>
<g>
	<g>
		<path class="st3" d="M232,250.5c-10.7,0-20.8-2.7-27.6-7.3c-2.8-1.9-3.5-5.7-1.6-8.5c1.9-2.8,5.6-3.5,8.4-1.6
			c4.7,3.3,12.5,5.2,20.8,5.2c8.3,0,16-2,20.8-5.2c2.8-1.9,6.5-1.2,8.4,1.6c1.9,2.8,1.2,6.6-1.6,8.5
			C252.8,247.9,242.7,250.5,232,250.5z"/>
	</g>
</g>
<path class="st1" d="M136,144c0,0,51,5,80-8c4.1-1.8,16-28,16-28v36c0,0,36.8-1.9,75-17.3V98H130.6C134.2,116.3,136,144,136,144z"/>
<g>
	<path class="st4" d="M349,334.5l-17.2-8.6c-2.9-1.5-6.3,0.2-7.2,3.4C313.5,370,276.3,400,232,400c-44.3,0-81.6-30-92.6-70.8
		c-0.9-3.1-4.2-4.8-7.1-3.3l-15.7,7.9c-13.4,6.7-21.6,18.1-23.3,31.3l-9.6,71.8c-1.9,14.4,9.3,27.2,23.8,27.2h249.2
		c14.5,0,25.7-12.8,23.8-27.2l-9.6-71.8C369,351.9,360.9,340.5,349,334.5z"/>
</g>
<g>
	<path class="st5" d="M96.8,353.1c-1.8,3.7-3.1,7.7-3.6,11.9l-9.6,71.8c-1.9,14.4,9.3,27.2,23.8,27.2H144v-32
		c0-10.4-3.4-20.5-9.6-28.8L96.8,353.1z"/>
</g>
<g>
	<path class="st5" d="M367.2,353.1c1.8,3.7,3.1,7.7,3.6,11.9l9.6,71.8c1.9,14.4-9.3,27.2-23.8,27.2H320v-32
		c0-10.4,3.4-20.5,9.6-28.8L367.2,353.1z"/>
</g>
</svg>
