<?xml version="1.0" encoding="utf-8"?>
<!-- Generator: Adobe Illustrator 20.0.0, SVG Export Plug-In . SVG Version: 6.00 Build 0)  -->
<svg version="1.1" id="logo" xmlns="http://www.w3.org/2000/svg" xmlns:xlink="http://www.w3.org/1999/xlink" x="0px" y="0px"
	 viewBox="0 0 605 605" style="enable-background:new 0 0 605 605;" xml:space="preserve">
<style type="text/css">
	.st0{fill:none;stroke:#5E5E5E;stroke-width:20.7404;stroke-miterlimit:10;}
	.st1{fill:none;stroke:#5E5E5E;stroke-width:20.7404;stroke-linecap:round;stroke-linejoin:round;stroke-miterlimit:10;}
</style>
<circle class="st0" cx="302.5" cy="305.2" r="32.3"/>
<path class="st1" d="M271.5,293.3c-9.2-46.2-20.2-94.5-20.8-141.8c-0.2-15.3-17.1-29.7-29.4-36.9c-28.6-16.7-62.7-8.7-90.5,5.4
	c0,0-173.1,87.5-83.5,284.8c0,0,79.1,181.5,170.4,31.4c0,0-35-62.4,0-125.1l30.4,32.4c0,0-44.4,61.9-30.4,92.5"/>
<path class="st1" d="M333.5,293.3c9.2-46.2,20.2-94.5,20.8-141.8c0.2-15.3,17.1-29.7,29.4-36.9c28.6-16.7,62.7-8.7,90.5,5.4
	c0,0,173.1,87.5,83.5,284.8c0,0-79.1,181.5-170.4,31.4c0,0,35-62.4,0-125.1l-30.6,32.6c0,0,44.4,61.9,30.4,92.5"/>
<path class="st1" d="M201.9,107c0,0,48.8-60.7,100.6-63.2"/>
<path class="st1" d="M403.1,107c0,0-48.8-60.7-100.6-63.2"/>
<path class="st1" d="M302.5,337.5v148.8c0,0-143,129.8-232.9,47.4c0,0-64.4-46.6-15.9-115.8"/>
<path class="st1" d="M302.7,486.3c0,0,143,129.8,232.9,47.4c0,0,64.4-46.6,15.9-115.8"/>
<path class="st1" d="M302.5,466.1c0,0-22.9,26.6-84.9-29.8"/>
<path class="st1" d="M302.5,466.1c0,0,22.9,26.6,84.9-29.8"/>
</svg>
