<svg version="1.1" xmlns="http://www.w3.org/2000/svg" xmlns:xlink="http://www.w3.org/1999/xlink" x="0px" y="0px"
	 viewBox="0 0 463 463" style="enable-background:new 0 0 463 463;" xml:space="preserve">
<style type="text/css">
	.circle{fill:none;stroke:#fff;stroke-width:11;stroke-miterlimit:10;}
	.line{fill:none;stroke:#fff;stroke-width:11;stroke-linecap:round;stroke-linejoin:round;stroke-miterlimit:10;}

	@-webkit-keyframes dash {from {stroke-dashoffset: 2000;} to {stroke-dashoffset: 0;}}

	.line,.circle {
		stroke-dasharray:2000;
		stroke-dashoffset: 0;
		
		-webkit-animation: dash 3s linear forwards;
		-moz-animation: dash 3s linear forwards;
		animation: dash 3s linear forwards;
	}
</style>
<circle class="circle" cx="231.5" cy="233.5" r="25.8"/>
<path class="line" d="M206.6,224c-7.4-37-16.2-75.7-16.6-113.5c-0.1-12.2-13.7-23.8-23.5-29.5c-22.9-13.3-50.2-7-72.5,4.3
	c0,0-138.6,70-66.8,228c0,0,63.3,145.3,136.4,25.1c0,0-28-50,0-100.1l24.4,26c0,0-35.5,49.6-24.4,74.1"/>
<path class="line" d="M256.4,224c7.4-37,16.2-75.7,16.6-113.5c0.1-12.2,13.7-23.8,23.5-29.5c22.9-13.3,50.2-7,72.5,4.3
	c0,0,138.6,70,66.8,228c0,0-63.3,145.3-136.4,25.1c0,0,28-50,0-100.1l-24.4,26c0,0,35.5,49.6,24.4,74.1"/>
<path class="line" d="M150.9,74.9c0,0,39.1-48.6,80.6-50.6"/>
<path class="line" d="M312.1,74.9c0,0-39.1-48.6-80.6-50.6"/>
<path class="line" d="M231.5,259.3l0,119.1c0,0-114.5,103.9-186.5,37.9c0,0-51.5-37.4-12.7-92.7"/>
<path class="line" d="M231.6,378.5c0,0,114.5,103.9,186.5,37.9c0,0,51.5-37.4,12.7-92.7"/>
<path class="line" d="M231.5,362.3c0,0-18.4,21.3-67.9-23.9"/>
<path class="line" d="M231.5,362.3c0,0,18.4,21.3,67.9-23.9"/>
</svg>
