<?xml version="1.0" encoding="utf-8"?>
<!-- Generator: Adobe Illustrator 18.0.0, SVG Export Plug-In . SVG Version: 6.00 Build 0)  -->
<!DOCTYPE svg PUBLIC "-//W3C//DTD SVG 1.1//EN" "http://www.w3.org/Graphics/SVG/1.1/DTD/svg11.dtd">
<svg version="1.1" id="Layer_1" xmlns="http://www.w3.org/2000/svg" xmlns:xlink="http://www.w3.org/1999/xlink" x="0px" y="0px"
	 viewBox="0 0 64 64" enable-background="new 0 0 64 64" xml:space="preserve">
<g>
	<g>
		<g>
			<path fill="#3BCC9C" d="M32,0c17.7,0,32,14.3,32,32S49.7,64,32,64S0,49.7,0,32S14.3,0,32,0z"/>
		</g>
	</g>
	<g>
		<g>
			<path fill="#FFFFFF" d="M41.8,10l8.2,7.8v34.8c0,0.8-0.7,1.4-1.5,1.4h-33c-0.8,0-1.5-0.6-1.5-1.4V11.4c0-0.8,0.7-1.4,1.5-1.4
				H41.8z"/>
		</g>
	</g>
	<g>
		<g>
			<polygon fill="#D3D5DD" points="50,17.8 41.8,17.8 41.8,10 			"/>
		</g>
	</g>
	<g>
		<g>
			<path fill="#F26DA0" d="M49.8,23.1L54,19c0.8-0.8,2-0.8,2.8,0l4.2,4.2c0.8,0.8,0.8,2,0,2.8l-4.1,4.2L49.8,23.1z"/>
		</g>
	</g>
	<g>
		<g>
			<polygon fill="#C1DCF7" points="58,29 56.9,30.2 55.4,28.6 56.5,27.5 58,29 			"/>
		</g>
	</g>
	<g>
		<g>
			<polygon fill="#9FBAD1" points="56.5,27.5 55.4,28.6 51.4,24.6 52.5,23.5 			"/>
		</g>
	</g>
	<g>
		<g>
			<polygon fill="#C1DCF7" points="50,22.9 51,22 51,22 52.5,23.5 51.4,24.6 49.8,23.1 			"/>
		</g>
	</g>
	<g>
		<g>
			<path fill="#D3D5DD" d="M43,21c0.5,0,1,0.5,1,1s-0.5,1-1,1H19c-0.6,0-1-0.5-1-1s0.4-1,1-1H43z"/>
		</g>
	</g>
	<g>
		<g>
			<polygon fill="#E8C6AA" points="34,42 38,46 38,49 34,49 31,46 31,42 			"/>
		</g>
	</g>
	<g>
		<g>
			<path fill="#D3D5DD" d="M36.8,16c0.5,0,1,0.5,1,1s-0.5,1-1,1H19c-0.6,0-1-0.5-1-1s0.4-1,1-1H36.8z"/>
		</g>
	</g>
	<g>
		<g>
			<path fill="#D3D5DD" d="M34,26c0.5,0,1,0.5,1,1s-0.5,1-1,1H19c-0.6,0-1-0.5-1-1s0.4-1,1-1H34z"/>
		</g>
	</g>
	<g>
		<g>
			<polygon points="34,49 31,49 31,46 			"/>
		</g>
	</g>
	<g>
		<g>
			<path d="M26,47c0.5,0,1,0.5,1,1s-0.5,1-1,1h-7c-0.6,0-1-0.5-1-1s0.4-1,1-1H26z"/>
		</g>
	</g>
	<g>
		<g>
			<polygon fill="#F4A845" points="56.9,30.2 38,49 38,46 34,42 31,42 31,41.9 49.8,23.1 			"/>
		</g>
	</g>
	<g>
		<g>
			<polygon fill="#F7D854" points="55.4,28.6 38,46 34,46 34,42 51.4,24.6 			"/>
		</g>
	</g>
</g>
</svg>
