<?xml version="1.0" encoding="UTF-8" standalone="no"?>
<!DOCTYPE svg PUBLIC "-//W3C//DTD SVG 1.1//EN" "http://www.w3.org/Graphics/SVG/1.1/DTD/svg11.dtd">
<svg width="100%" height="100%" viewBox="0 0 1515 357" version="1.1" xmlns="http://www.w3.org/2000/svg" xmlns:xlink="http://www.w3.org/1999/xlink" xml:space="preserve" style="fill-rule:evenodd;clip-rule:evenodd;stroke-linejoin:round;stroke-miterlimit:1.41421;">
    <g id="Artboard1" transform="matrix(1.21062,0,0,0.891471,-527.888,-21.0117)">
        <rect x="436.046" y="23.57" width="1251.06" height="399.805" style="fill:none;"/>
        <g transform="matrix(-1.65936,1.05549,-0.777238,-2.25342,1925.17,-20.8412)">
            <path d="M468.699,51.261L363.268,3.891C361.86,3.258 360.205,3.886 359.572,5.295L324.527,83.293C323.895,84.702 324.523,86.356 325.932,86.989L431.362,134.36C432.771,134.992 434.426,134.364 435.058,132.955L470.103,54.957C470.736,53.548 470.107,51.894 468.699,51.261" style="fill:rgb(255,138,101);fill-rule:nonzero;"/>
        </g>
        <g transform="matrix(-1.65936,1.05549,-0.777238,-2.25342,1925.17,-20.8412)">
            <path d="M380.251,111.396L377.043,109.954L414.379,26.856L417.588,28.297L380.251,111.396Z" style="fill:rgb(255,112,67);fill-rule:nonzero;"/>
        </g>
        <g transform="matrix(-1.65936,1.05549,-0.777238,-2.25342,1925.17,-20.8412)">
            <path d="M362.308,6.93L327.566,84.253L432.322,131.32L467.064,53.997L362.308,6.93Z" style="fill:rgb(250,250,250);fill-rule:nonzero;"/>
        </g>
        <g transform="matrix(-1.65936,1.05549,-0.777238,-2.25342,1925.17,-20.8412)">
            <path d="M380.747,108.148L379.143,107.427L413.884,30.104L415.489,30.825L380.747,108.148Z" style="fill:rgb(224,224,224);fill-rule:nonzero;"/>
        </g>
        <g transform="matrix(-1.65936,1.05549,-0.777238,-2.25342,1925.17,-20.8412)">
            <path d="M386.486,101.15L380.23,98.339C379.299,97.921 378.206,98.336 377.788,99.267C377.37,100.197 377.786,101.29 378.716,101.708L384.972,104.519C385.903,104.937 386.996,104.522 387.414,103.591C387.832,102.661 387.416,101.568 386.486,101.15" style="fill:rgb(189,189,189);fill-rule:nonzero;"/>
        </g>
        <g transform="matrix(-1.65936,1.05549,-0.777238,-2.25342,1925.17,-20.8412)">
            <path d="M396.184,79.564L389.928,76.753C388.997,76.335 387.904,76.75 387.486,77.681C387.068,78.611 387.484,79.704 388.414,80.122L394.67,82.933C395.601,83.351 396.694,82.936 397.112,82.005C397.53,81.075 397.114,79.982 396.184,79.564" style="fill:rgb(189,189,189);fill-rule:nonzero;"/>
        </g>
        <g transform="matrix(-1.65936,1.05549,-0.777238,-2.25342,1925.17,-20.8412)">
            <path d="M405.883,57.979L399.627,55.168C398.696,54.75 397.603,55.165 397.185,56.096C396.767,57.026 397.183,58.119 398.113,58.537L404.369,61.348C405.3,61.766 406.393,61.351 406.811,60.42C407.229,59.49 406.813,58.397 405.883,57.979" style="fill:rgb(189,189,189);fill-rule:nonzero;"/>
        </g>
        <g transform="matrix(-1.65936,1.05549,-0.777238,-2.25342,1925.17,-20.8412)">
            <path d="M387.742,71.23L348.92,53.787L350.558,50.141L389.38,67.584L387.742,71.23Z" style="fill:rgb(97,97,97);fill-rule:nonzero;"/>
        </g>
        <g transform="matrix(-1.65936,1.05549,-0.777238,-2.25342,1925.17,-20.8412)">
            <path d="M384.468,78.516L345.646,61.073L347.284,57.427L386.106,74.87L384.468,78.516Z" style="fill:rgb(97,97,97);fill-rule:nonzero;"/>
        </g>
        <g transform="matrix(-1.65936,1.05549,-0.777238,-2.25342,1925.17,-20.8412)">
            <path d="M381.194,85.802L342.372,68.359L344.01,64.713L382.832,82.156L381.194,85.802Z" style="fill:rgb(97,97,97);fill-rule:nonzero;"/>
        </g>
        <g transform="matrix(-1.65936,1.05549,-0.777238,-2.25342,1925.17,-20.8412)">
            <path d="M377.921,93.088L339.099,75.645L340.737,71.999L379.559,89.442L377.921,93.088Z" style="fill:rgb(97,97,97);fill-rule:nonzero;"/>
        </g>
        <g transform="matrix(-1.65936,1.05549,-0.777238,-2.25342,1925.17,-20.8412)">
            <path d="M402.1,77.681L440.922,95.124L442.56,91.478L403.738,74.035L402.1,77.681Z" style="fill:rgb(97,97,97);fill-rule:nonzero;"/>
        </g>
        <g transform="matrix(-1.65936,1.05549,-0.777238,-2.25342,1925.17,-20.8412)">
            <path d="M398.826,84.967L437.648,102.41L439.286,98.764L400.464,81.321L398.826,84.967Z" style="fill:rgb(97,97,97);fill-rule:nonzero;"/>
        </g>
        <g transform="matrix(-1.65936,1.05549,-0.777238,-2.25342,1925.17,-20.8412)">
            <path d="M405.373,70.395L444.195,87.838L445.833,84.192L407.011,66.749L405.373,70.395Z" style="fill:rgb(97,97,97);fill-rule:nonzero;"/>
        </g>
        <g transform="matrix(-1.65936,1.05549,-0.777238,-2.25342,1925.17,-20.8412)">
            <path d="M408.647,63.109L447.469,80.552L449.107,76.906L410.285,59.463L408.647,63.109Z" style="fill:rgb(97,97,97);fill-rule:nonzero;"/>
        </g>
        <g transform="matrix(-1.65936,1.05549,-0.777238,-2.25342,1925.17,-20.8412)">
            <path d="M411.921,55.823L450.743,73.266L452.381,69.62L413.559,52.177L411.921,55.823Z" style="fill:rgb(97,97,97);fill-rule:nonzero;"/>
        </g>
        <g transform="matrix(-1.65936,1.05549,-0.777238,-2.25342,1925.17,-20.8412)">
            <path d="M415.194,48.537L454.016,65.98L455.654,62.334L416.832,44.891L415.194,48.537Z" style="fill:rgb(97,97,97);fill-rule:nonzero;"/>
        </g>
        <g transform="matrix(-1.65936,1.05549,-0.777238,-2.25342,1925.17,-20.8412)">
            <path d="M395.552,92.253L419.167,102.864L420.806,99.217L397.19,88.607L395.552,92.253Z" style="fill:rgb(97,97,97);fill-rule:nonzero;"/>
        </g>
        <g transform="matrix(-1.49998,1.42922,-1.05244,-2.03699,2508.43,-395.209)">
            <path d="M526.567,99.773L587.885,141.052L633.857,72.762L572.54,31.483C570.834,30.334 568.52,30.786 567.371,32.492L525.557,94.604C524.409,96.31 524.861,98.625 526.567,99.773" style="fill:rgb(252,179,22);fill-rule:nonzero;"/>
        </g>
        <g transform="matrix(-1.49998,1.42922,-1.05244,-2.03699,2508.43,-395.209)">
            <path d="M627.75,73.976C629.091,71.957 631.814,71.406 633.834,72.747C635.853,74.088 636.403,76.811 635.063,78.831C633.722,80.85 630.998,81.4 628.979,80.06C626.96,78.719 626.409,75.995 627.75,73.976" style="fill:rgb(252,179,22);fill-rule:nonzero;"/>
        </g>
        <g transform="matrix(-1.49998,1.42922,-1.05244,-2.03699,2508.43,-395.209)">
            <path d="M566.165,37.852L569.229,33.3C569.65,32.676 570.495,32.516 571.119,32.936L632.744,74.422C633.8,75.133 634.332,76.322 634.244,77.509C634.203,78.075 634.019,78.638 633.683,79.15C633.518,79.395 633.328,79.614 633.116,79.803C631.988,80.824 630.266,80.988 628.939,80.112C628.933,80.108 628.933,80.108 628.927,80.104L566.165,37.852Z" style="fill:rgb(250,250,250);fill-rule:nonzero;"/>
        </g>
        <g transform="matrix(-1.49998,1.42922,-1.05244,-2.03699,2508.43,-395.209)">
            <path d="M566.165,37.852L568.263,34.736C568.683,34.111 569.533,33.945 570.157,34.366L634.244,77.509C634.203,78.075 634.019,78.638 633.683,79.15C633.518,79.395 633.328,79.614 633.116,79.803C631.988,80.824 630.266,80.988 628.939,80.112C628.933,80.108 628.933,80.108 628.927,80.104L566.165,37.852Z" style="fill:rgb(189,189,189);fill-rule:nonzero;"/>
        </g>
        <g transform="matrix(-1.49998,1.42922,-1.05244,-2.03699,2508.43,-395.209)">
            <path d="M566.165,37.852L566.852,36.831C567.273,36.206 568.118,36.046 568.743,36.467L633.116,79.803C631.988,80.824 630.266,80.988 628.939,80.112C628.933,80.108 628.933,80.108 628.927,80.104L566.165,37.852Z" style="fill:rgb(250,250,250);fill-rule:nonzero;"/>
        </g>
        <g transform="matrix(-1.49998,1.42922,-1.05244,-2.03699,2508.43,-395.209)">
            <path d="M521.665,107.055L582.032,147.694L628.005,79.404L567.638,38.765C565.932,37.616 563.618,38.068 562.469,39.774L520.655,101.886C519.507,103.592 519.959,105.907 521.665,107.055" style="fill:rgb(255,213,78);fill-rule:nonzero;"/>
        </g>
        <g transform="matrix(-1.49998,1.42922,-1.05244,-2.03699,2508.43,-395.209)">
            <path d="M627.054,78.763L628.956,80.043L582.983,148.333L581.081,147.053L627.054,78.763Z" style="fill:rgb(252,179,22);fill-rule:nonzero;"/>
        </g>
        <g transform="matrix(-1.49998,1.42922,-1.05244,-2.03699,2508.43,-395.209)">
            <path d="M582.983,148.334C584.994,149.688 587.721,149.155 589.074,147.144L635.047,78.854C633.694,80.865 630.967,81.397 628.956,80.044L582.983,148.334Z" style="fill:rgb(255,213,78);fill-rule:nonzero;"/>
        </g>
        <g transform="matrix(-1.49998,1.42922,-1.05244,-2.03699,2508.43,-395.209)">
            <path d="M551.896,92.79C557.266,84.813 568.086,82.7 576.063,88.07C584.04,93.44 586.154,104.26 580.784,112.237C575.414,120.214 564.593,122.328 556.616,116.957C548.639,111.587 546.526,100.767 551.896,92.79" style="fill:rgb(250,250,250);fill-rule:nonzero;"/>
        </g>
        <g transform="matrix(-1.49998,1.42922,-1.05244,-2.03699,2508.43,-395.209)">
            <path d="M570.245,68.003L596.845,85.91C597.611,86.426 598.651,86.223 599.167,85.456C599.683,84.69 599.479,83.65 598.713,83.134L572.114,65.227C571.347,64.712 570.307,64.915 569.791,65.681C569.276,66.447 569.479,67.487 570.245,68.003" style="fill:rgb(250,250,250);fill-rule:nonzero;"/>
        </g>
        <g transform="matrix(-1.49998,1.42922,-1.05244,-2.03699,2508.43,-395.209)">
            <path d="M621.792,64.64L623.944,70.536L630.217,70.312L626.709,75.523L618.284,69.851L621.792,64.64Z" style="fill:rgb(229,57,53);fill-rule:nonzero;"/>
        </g>
        <g transform="matrix(1.43702,0.469774,-0.204072,1.15123,-1018.01,-574.694)">
            <g transform="matrix(-1.11008,-0.935544,0.551901,-1.88173,1327.8,598.999)">
                <path d="M152.445,76.941L205.53,30.433L259.736,92.303L203.062,141.957L152,83.676C150.263,81.693 150.463,78.678 152.445,76.941" style="fill:rgb(67,160,71);fill-rule:nonzero;"/>
            </g>
            <g transform="matrix(-1.11008,-0.935544,0.551901,-1.88173,1327.8,598.999)">
                <path d="M159.553,85.054L212.638,38.545L266.844,100.416L213.759,146.925C211.777,148.662 208.762,148.462 207.025,146.48L159.108,91.788C157.371,89.806 157.571,86.791 159.553,85.054" style="fill:rgb(129,199,132);fill-rule:nonzero;"/>
            </g>
            <g transform="matrix(-1.11008,-0.935544,0.551901,-1.88173,1327.8,598.999)">
                <path d="M212.638,38.545L217.663,34.142L271.87,96.013L266.845,100.416L212.638,38.545Z" style="fill:rgb(67,67,67);fill-rule:nonzero;"/>
            </g>
            <g transform="matrix(-1.11008,-0.935544,0.551901,-1.88173,1327.8,598.999)">
                <path d="M152.712,80.178L209.763,30.195L215.151,36.344L158.1,86.328L152.712,80.178Z" style="fill:rgb(250,250,250);fill-rule:nonzero;"/>
            </g>
            <g transform="matrix(-1.11008,-0.935544,0.551901,-1.88173,1327.8,598.999)">
                <path d="M154.237,81.918L211.288,31.935L213.626,34.604L156.576,84.587L154.237,81.918Z" style="fill:rgb(189,189,189);fill-rule:nonzero;"/>
            </g>
            <g transform="matrix(-1.11008,-0.935544,0.551901,-1.88173,1327.8,598.999)">
                <path d="M198.186,115.16L233.814,83.945L247.722,99.819L212.093,131.034L198.186,115.16Z" style="fill:rgb(245,245,245);fill-rule:nonzero;"/>
            </g>
            <g transform="matrix(-1.11008,-0.935544,0.551901,-1.88173,1327.8,598.999)">
                <path d="M210.715,123.278L240.214,97.433L241.605,99.021L212.106,124.866L210.715,123.278Z" style="fill:rgb(189,189,189);fill-rule:nonzero;"/>
            </g>
            <g transform="matrix(-1.11008,-0.935544,0.551901,-1.88173,1327.8,598.999)">
                <path d="M221.014,107.786L237.007,93.774L238.398,95.362L222.405,109.373L221.014,107.786Z" style="fill:rgb(189,189,189);fill-rule:nonzero;"/>
            </g>
            <g transform="matrix(-1.11008,-0.935544,0.551901,-1.88173,1327.8,598.999)">
                <path d="M204.302,115.959L233.801,90.114L235.192,91.702L205.693,117.546L204.302,115.959Z" style="fill:rgb(189,189,189);fill-rule:nonzero;"/>
            </g>
            <g transform="matrix(-1.11008,-0.935544,0.551901,-1.88173,1327.8,598.999)">
                <path d="M170.912,75.102L173.465,72.866L227.671,134.737L225.118,136.973L170.912,75.102Z" style="fill:rgb(67,67,67);fill-rule:nonzero;"/>
            </g>
            <g transform="matrix(-1.11008,-0.935544,0.551901,-1.88173,1327.8,598.999)">
                <path d="M226.916,135.398L172.71,73.527L171.666,74.441L225.873,136.312L226.916,135.398Z" style="fill:rgb(97,97,97);fill-rule:nonzero;"/>
            </g>
            <g transform="matrix(-1.11008,-0.935544,0.551901,-1.88173,1327.8,598.999)">
                <path d="M163.804,66.989L166.357,64.753L173.465,72.866L170.912,75.102L163.804,66.989Z" style="fill:rgb(33,33,33);fill-rule:nonzero;"/>
            </g>
            <g transform="matrix(-1.11008,-0.935544,0.551901,-1.88173,1327.8,598.999)">
                <path d="M172.71,73.527L165.602,65.414L164.558,66.328L171.667,74.441L172.71,73.527Z" style="fill:rgb(67,67,67);fill-rule:nonzero;"/>
            </g>
        </g>
        <g transform="matrix(-1.49998,1.42922,-1.05244,-2.03699,2508.43,-395.209)">
            <path d="M631.024,131.845L635.758,123.884C635.897,123.65 635.632,123.386 635.398,123.525L627.437,128.258L631.024,131.845Z" style="fill:rgb(255,224,178);fill-rule:nonzero;"/>
        </g>
        <g transform="matrix(-1.49998,1.42922,-1.05244,-2.03699,2508.43,-395.209)">
            <path d="M627.437,128.258L631.024,131.845L586.664,176.205L583.077,172.618L627.437,128.258Z" style="fill:rgb(255,202,40);fill-rule:nonzero;"/>
        </g>
        <g transform="matrix(-1.49998,1.42922,-1.05244,-2.03699,2508.43,-395.209)">
            <path d="M583.596,175.686C584.586,176.676 585.96,176.908 586.664,176.204C587.368,175.5 587.136,174.126 586.146,173.136C585.155,172.146 583.782,171.913 583.078,172.618C582.373,173.322 582.606,174.696 583.596,175.686" style="fill:rgb(239,83,80);fill-rule:nonzero;"/>
        </g>
        <g transform="matrix(-1.49998,1.42922,-1.05244,-2.03699,2508.43,-395.209)">
            <path d="M588.145,167.55L591.732,171.137L586.664,176.204L583.077,172.618L588.145,167.55Z" style="fill:rgb(239,83,80);fill-rule:nonzero;"/>
        </g>
        <g transform="matrix(-1.49998,1.42922,-1.05244,-2.03699,2508.43,-395.209)">
            <path d="M592.827,166.455C591.837,165.465 590.463,165.232 589.759,165.937L584.352,171.343C585.056,170.639 586.43,170.871 587.421,171.861C588.411,172.852 588.643,174.226 587.939,174.93L593.345,169.523C594.05,168.819 593.817,167.445 592.827,166.455" style="fill:rgb(238,238,238);fill-rule:nonzero;"/>
        </g>
        <g transform="matrix(-1.49998,1.42922,-1.05244,-2.03699,2508.43,-395.209)">
            <path d="M633.437,125.844C633.708,126.115 633.916,126.415 634.07,126.721L635.757,123.884C635.896,123.65 635.631,123.385 635.397,123.524L632.56,125.211C632.866,125.365 633.166,125.573 633.437,125.844" style="fill:rgb(67,67,67);fill-rule:nonzero;"/>
        </g>
        <g transform="matrix(1.04515,1.41932,-0.616561,0.837294,-261.242,-1697.22)">
            <g transform="matrix(1.23971,0,0,2.10146,790.139,65.6451)">
                <path d="M293.622,101.175L285.661,96.441C285.427,96.302 285.163,96.567 285.302,96.801L290.035,104.762L293.622,101.175Z" style="fill:rgb(67,67,67);fill-rule:nonzero;"/>
            </g>
            <g transform="matrix(1.23971,0,0,2.10146,790.139,65.6451)">
                <path d="M290.035,104.761L293.622,101.174L337.982,145.534L334.395,149.121L290.035,104.761Z" style="fill:rgb(67,67,67);fill-rule:nonzero;"/>
            </g>
            <g transform="matrix(1.23971,0,0,2.10146,790.139,65.6451)">
                <path d="M337.463,148.603C338.453,147.613 338.686,146.239 337.981,145.535C337.277,144.83 335.904,145.063 334.913,146.053C333.923,147.043 333.691,148.417 334.395,149.121C335.099,149.826 336.473,149.593 337.463,148.603" style="fill:rgb(67,67,67);fill-rule:nonzero;"/>
            </g>
            <g transform="matrix(1.23971,0,0,2.10146,790.139,65.6451)">
                <path d="M292.881,104.02C291.89,105.01 291.657,106.384 292.363,107.088L293.621,108.347C292.917,107.643 293.148,106.269 294.14,105.279C295.13,104.288 296.503,104.056 297.208,104.76L295.948,103.502C295.244,102.797 293.871,103.03 292.881,104.02" style="fill:rgb(97,97,97);fill-rule:nonzero;"/>
            </g>
            <g transform="matrix(1.23971,0,0,2.10146,790.139,65.6451)">
                <path d="M286.124,98.189L285.297,96.802C285.164,96.567 285.431,96.3 285.66,96.44L287.046,97.267C286.868,97.381 286.703,97.521 286.544,97.68C286.385,97.839 286.238,98.011 286.124,98.189" style="fill:rgb(189,189,189);fill-rule:nonzero;"/>
            </g>
        </g>
        <g transform="matrix(0.841741,-1.64994,0.716741,0.674337,-254.027,2267.59)">
            <g transform="matrix(1.23971,0,0,2.10146,893.432,66.704)">
                <path d="M284.115,39.503L311.696,20.457L303.161,67.084L284.115,39.503ZM335.032,-15.651L261.228,35.313L312.192,109.117L335.032,-15.651Z" style="fill:rgb(255,183,77);fill-rule:nonzero;"/>
            </g>
            <g transform="matrix(1.23971,0,0,2.10146,893.432,66.704)">
                <path d="M301.872,86.934L303.144,88.776L299.759,91.113L298.487,89.271L301.872,86.934Z" style="fill:rgb(67,67,67);fill-rule:nonzero;"/>
            </g>
            <g transform="matrix(1.23971,0,0,2.10146,893.432,66.704)">
                <path d="M296.457,79.092L297.729,80.934L294.344,83.271L293.072,81.429L296.457,79.092Z" style="fill:rgb(67,67,67);fill-rule:nonzero;"/>
            </g>
            <g transform="matrix(1.23971,0,0,2.10146,893.432,66.704)">
                <path d="M291.042,71.25L292.314,73.092L288.929,75.429L287.657,73.587L291.042,71.25Z" style="fill:rgb(67,67,67);fill-rule:nonzero;"/>
            </g>
            <g transform="matrix(1.23971,0,0,2.10146,893.432,66.704)">
                <path d="M285.627,63.408L286.899,65.25L283.514,67.587L282.242,65.745L285.627,63.408Z" style="fill:rgb(67,67,67);fill-rule:nonzero;"/>
            </g>
            <g transform="matrix(1.23971,0,0,2.10146,893.432,66.704)">
                <path d="M280.212,55.566L281.484,57.408L278.099,59.745L276.827,57.903L280.212,55.566Z" style="fill:rgb(67,67,67);fill-rule:nonzero;"/>
            </g>
        </g>
    </g>
</svg>
